<mxfile host="app.diagrams.net" modified="2022-09-12T10:34:10.349Z" agent="5.0 (X11)" etag="NUhCCeB5vnEUx8_F4Ya-" version="20.3.0" type="github">
  <diagram id="sdy6Zf20zEfnlvDLYYiU" name="Page-1">
    <mxGraphModel dx="711" dy="394" grid="1" gridSize="10" guides="1" tooltips="1" connect="1" arrows="1" fold="1" page="1" pageScale="1" pageWidth="850" pageHeight="1100" math="0" shadow="0">
      <root>
        <mxCell id="0" />
        <mxCell id="1" parent="0" />
        <mxCell id="yHUZ3tNTsNmFdZah_5wA-1" value="" style="rounded=0;whiteSpace=wrap;html=1;labelBorderColor=none;fontFamily=Helvetica;" vertex="1" parent="1">
          <mxGeometry x="180" y="290" width="120" height="60" as="geometry" />
        </mxCell>
      </root>
    </mxGraphModel>
  </diagram>
</mxfile>
